<?xml version="1.0" encoding="utf-8"?>
<!-- Generator: Adobe Illustrator 23.0.6, SVG Export Plug-In . SVG Version: 6.00 Build 0)  -->
<svg version="1.1" id="Layer_1" xmlns="http://www.w3.org/2000/svg" xmlns:xlink="http://www.w3.org/1999/xlink" x="0px" y="0px"
	 viewBox="0 0 25 25" style="enable-background:new 0 0 25 25;" xml:space="preserve">
<g>
	<path class="st0" d="M16.4,12c0.1,0,0.1,0,0.1,0.1c1.3,0.6,2.5,1.4,3.5,2.4c1.4,1.5,2.3,3.2,2.8,5.2c0.2,0.6,0.3,1.3,0.3,1.9
		c0,0.3,0,0.6,0,1c0,0,0,0.1,0,0.1c0,0,0,0,0,0h0c-7.1,0-14.1,0-21.2,0c0,0-0.1,0-0.1,0c0,0,0-0.1,0-0.1c0-0.3,0-0.5,0-0.8
		c0-0.4,0.1-0.7,0.1-1.1c0.2-1.1,0.5-2.1,1-3.1c0.7-1.5,1.7-2.9,3-3.9c0.7-0.6,1.5-1.1,2.4-1.5c0.1,0,0.1-0.1,0.2-0.1
		c1.1,1,2.4,1.5,3.9,1.5C14,13.5,15.2,13,16.4,12z"/>
	<path class="st0" d="M7.1,7.6c0-1.9,1-3.5,2.4-4.4c0.6-0.4,1.3-0.7,2.1-0.8C13.4,2,15.2,2.7,16.5,4c0.7,0.8,1.1,1.6,1.3,2.6
		c0.4,2.4-0.9,4.7-3,5.6c-0.6,0.3-1.1,0.4-1.7,0.5c-1.4,0.1-2.7-0.2-3.8-1.1c-1-0.8-1.7-1.8-2-3.1C7.2,8.3,7.1,7.9,7.1,7.6z"/>
</g>
</svg>
