<svg id="Layer_1" data-name="Layer 1" xmlns="http://www.w3.org/2000/svg" viewBox="0 0 48.27 42"><path d="M8.31,6.64,10,13.46v.06L15,34.1a1.34,1.34,0,0,0,1.3,1h25.9a1.3,1.3,0,0,0,1.27-1l5.35-20.61a1.44,1.44,0,0,0-.23-1.14,1.36,1.36,0,0,0-1-.52H12.32L10.65,5a1.32,1.32,0,0,0-1.3-1H1.91a1.34,1.34,0,0,0,0,2.67h6.4Zm37.5,7.83-4.67,18H17.34L13,14.47Z" transform="translate(-0.58 -4)"/><path d="M42.67,41.34A4.66,4.66,0,1,0,38,46,4.66,4.66,0,0,0,42.67,41.34Zm-6.68,0a2,2,0,1,1,2,2A2,2,0,0,1,36,41.34Z" transform="translate(-0.58 -4)"/><path d="M25.13,41.34A4.66,4.66,0,1,0,20.47,46,4.62,4.62,0,0,0,25.13,41.34Zm-6.68,0a2,2,0,1,1,2,2A2,2,0,0,1,18.45,41.34Z" transform="translate(-0.58 -4)"/></svg>